<?xml version="1.0" encoding="utf-8"?>
<!-- Generator: Adobe Illustrator 24.3.0, SVG Export Plug-In . SVG Version: 6.00 Build 0)  -->
<svg version="1.1" id="Calque_1" xmlns="http://www.w3.org/2000/svg" xmlns:xlink="http://www.w3.org/1999/xlink" x="0px" y="0px"
	 viewBox="0 0 1441 477" style="enable-background:new 0 0 1441 477;" xml:space="preserve">
<style type="text/css">
	.st0{fill-rule:evenodd;clip-rule:evenodd;fill:#599D78;}
	.st1{opacity:4.000000e-02;}
	.st2{fill-rule:evenodd;clip-rule:evenodd;fill:#FFFFFF;}
	.st3{filter:url(#Adobe_OpacityMaskFilter);}
	.st4{mask:url(#mask-2_1_);}
	.st5{filter:url(#Adobe_OpacityMaskFilter_1_);}
	.st6{mask:url(#mask-4_1_);fill-rule:evenodd;clip-rule:evenodd;fill:#525252;}
	.st7{fill-rule:evenodd;clip-rule:evenodd;fill:#BABABA;}
	.st8{filter:url(#Adobe_OpacityMaskFilter_2_);}
	.st9{mask:url(#mask-8_1_);fill-rule:evenodd;clip-rule:evenodd;fill:#B8B8B8;}
	.st10{fill-rule:evenodd;clip-rule:evenodd;fill:#5D5D5D;}
	.st11{fill-rule:evenodd;clip-rule:evenodd;fill:#4F4F4F;}
	.st12{fill-rule:evenodd;clip-rule:evenodd;fill:#A3A3A3;}
	.st13{filter:url(#Adobe_OpacityMaskFilter_3_);}
	.st14{mask:url(#mask-10_1_);fill-rule:evenodd;clip-rule:evenodd;fill:#B8B8B8;}
	.st15{fill-rule:evenodd;clip-rule:evenodd;fill:#B9B9B9;}
	.st16{filter:url(#Adobe_OpacityMaskFilter_4_);}
	.st17{mask:url(#mask-12_1_);fill-rule:evenodd;clip-rule:evenodd;fill:#BABABA;}
	.st18{fill-rule:evenodd;clip-rule:evenodd;fill:#313131;}
	.st19{fill-rule:evenodd;clip-rule:evenodd;fill:#686868;}
	.st20{fill-rule:evenodd;clip-rule:evenodd;fill:#E5E5E5;}
	.st21{filter:url(#Adobe_OpacityMaskFilter_5_);}
	.st22{mask:url(#mask-14_1_);fill-rule:evenodd;clip-rule:evenodd;fill:#4F4F4F;}
	.st23{fill-rule:evenodd;clip-rule:evenodd;fill:#B8B8B8;}
	.st24{fill-rule:evenodd;clip-rule:evenodd;fill:#959595;}
	.st25{filter:url(#Adobe_OpacityMaskFilter_6_);}
	.st26{mask:url(#mask-16_1_);fill-rule:evenodd;clip-rule:evenodd;fill:#E5E5E5;}
	.st27{fill-rule:evenodd;clip-rule:evenodd;fill:#525252;}
	.st28{filter:url(#Adobe_OpacityMaskFilter_7_);}
	.st29{mask:url(#mask-18_1_);fill-rule:evenodd;clip-rule:evenodd;fill:#525252;}
	.st30{filter:url(#Adobe_OpacityMaskFilter_8_);}
	.st31{mask:url(#mask-20_1_);fill-rule:evenodd;clip-rule:evenodd;fill:#B9B9B9;}
	.st32{filter:url(#Adobe_OpacityMaskFilter_9_);}
	.st33{mask:url(#mask-22_1_);fill-rule:evenodd;clip-rule:evenodd;fill:#A3A3A3;}
	.st34{filter:url(#Adobe_OpacityMaskFilter_10_);}
	.st35{mask:url(#mask-24_1_);fill-rule:evenodd;clip-rule:evenodd;fill:#A3A3A3;}
	.st36{filter:url(#Adobe_OpacityMaskFilter_11_);}
	.st37{mask:url(#mask-26_1_);fill-rule:evenodd;clip-rule:evenodd;fill:#959595;}
	.st38{filter:url(#Adobe_OpacityMaskFilter_12_);}
	.st39{mask:url(#mask-28_1_);fill-rule:evenodd;clip-rule:evenodd;fill:#A3A3A3;}
	.st40{filter:url(#Adobe_OpacityMaskFilter_13_);}
	.st41{mask:url(#mask-34_1_);fill-rule:evenodd;clip-rule:evenodd;fill:#B9B9B9;}
	.st42{filter:url(#Adobe_OpacityMaskFilter_14_);}
	.st43{mask:url(#mask-36_1_);fill-rule:evenodd;clip-rule:evenodd;fill:#313131;}
</style>
<g id="_xD83D__xDFE2_-BDS">
	<g id="_xD83C__xDFE0_-Accueil" transform="translate(0.000000, -60.000000)">
		<g id="background_header" transform="translate(0.000000, 60.000000)">
			<rect id="Rectangle" class="st0" width="1441" height="477"/>
			<g id="pattern" transform="translate(720.000000, 238.500000) scale(-1, -1) translate(-720.000000, -238.500000) " class="st1">
				<g id="Mask">
					<polygon id="path-1_1_" class="st2" points="100,439.3 100,477 1340,477 1340,439.3 1440,439.3 1440,0 0,0 0,439.3 					"/>
				</g>
				<defs>
					<filter id="Adobe_OpacityMaskFilter" filterUnits="userSpaceOnUse">
						<feColorMatrix  type="matrix" values="1 0 0 0 0  0 1 0 0 0  0 0 1 0 0  0 0 0 1 0"/>
					</filter>
				</defs>
				<mask maskUnits="userSpaceOnUse" id="mask-2_1_">
					<g class="st3">
						<polygon id="path-1_2_" class="st2" points="100,439.3 100,477 1340,477 1340,439.3 1440,439.3 1440,0 0,0 0,439.3 						"/>
					</g>
				</mask>
				<g class="st4">
					<g transform="translate(0.000000, -34.735967)">
						<g id="Group-4" transform="translate(894.617760, 0.000000)">
							<g id="Clip-3">
							</g>
							<defs>
								<filter id="Adobe_OpacityMaskFilter_1_" filterUnits="userSpaceOnUse">
									<feColorMatrix  type="matrix" values="1 0 0 0 0  0 1 0 0 0  0 0 1 0 0  0 0 0 1 0"/>
								</filter>
							</defs>
							<mask maskUnits="userSpaceOnUse" id="mask-4_1_">
								<g class="st5">
									<polygon id="path-3_1_" class="st2" points="0.2,0.2 425.3,0.2 425.3,204.2 0.2,204.2 									"/>
								</g>
							</mask>
							<path id="Fill-2" class="st6" d="M36.6-93.3c17.9-8.9,38.8-10.4,58.6-13.9c61.4-11.5,124.9-16.5,187.3-9.1
								c26.4,2.8,59.2-0.5,82.4,11.8c36.1,17.5,36.5,33.4,40.5,68.4c3.8,18.2,5.8,36.6,4.3,55.2c-2.3,17.4,5.8,33,10.9,49
								c2.3,11.5,5.9,22.7,4.1,34.4c5.6,45-24,58.8-68.8,75.2c-31,11.6-66.2,19.9-99.7,25.5c-48,7.4-83.7-26.8-123.8-44.5
								C72.4,131.8-10,94.3,0.8,16.4C2.2-2.5,12.6-20.8,16.3-39.5C21.5-59.1,31.2-71.6,36.6-93.3"/>
						</g>
						<g id="Group-7" transform="translate(1.995842, 0.000000)">
							<g id="Clip-6">
							</g>
						</g>
						<path id="Fill-11" class="st7" d="M774.6,327.4c14.8,44.7,25.2,92,7.9,137.6c-8.2,44.4-38.4,81.1-92,88.2
							c-15.2,3-32.3,0-46.6-3.5c-19.2-3.6-40.2-5.5-57.2-14.8c-56.5-19-100.4-69.2-128.7-116.3c-26.3-37.7-17.1-53.7-4.3-93.1
							c7.6-33.7,13.3-66.2,38.7-94.7c19.4-21.4,31.7-53.2,73.2-63.4c76.1-20.3,140.4,25.8,175.6,87c5,5.7,8.8,9.5,11.2,16.2
							C761.5,290.2,765.5,301.2,774.6,327.4"/>
						<g id="Group-15" transform="translate(680.231357, 479.563300)">
							<g id="Clip-14">
							</g>
							<defs>
								<filter id="Adobe_OpacityMaskFilter_2_" filterUnits="userSpaceOnUse">
									<feColorMatrix  type="matrix" values="1 0 0 0 0  0 1 0 0 0  0 0 1 0 0  0 0 0 1 0"/>
								</filter>
							</defs>
							<mask maskUnits="userSpaceOnUse" id="mask-8_1_">
								<g class="st8">
									<polygon id="path-7_1_" class="st2" points="0,0 452,0 452,126.8 0,126.8 									"/>
								</g>
							</mask>
							<path id="Fill-13" class="st9" d="M272,307.9c21.5-10.8,43.1-21.6,63.8-33.6c16.3-11.2,29.2-23.4,39.7-37.9
								c5.8-3.2,10-8.9,13.7-14c15.5-22.4,36.5-43,53-65.5c33.1-38.6-27.1-41.5-25.1-65.1c2.6-9-6-14.9-9.8-21.9
								C395,50.1,396,15.3,370.1,6.9c-26.7-6.8-58.4-10.6-83.5,1.4c-24.1,12.5-53.1,15.6-78.5,24.9c-31.8,9.4-58.7,27.4-85.2,45.2
								c-16.1,11.6-27.3,27.3-40.3,41.4c-15.2,18-33.4,35-50.3,52.1c-9.3,10.5-13.8,23.7-18.8,35.1c-12.1,24.8-21.9,51-2.3,75.2
								c15.5,21.5,51.8,22.9,77.5,26.7C150.2,314.6,210.5,311.8,272,307.9"/>
						</g>
						<path id="Fill-16" class="st10" d="M675.2,346.1c9.6-4.4,15.8-12,21.1-20.4c12.6-15.5,24.6-30.7,35.9-46.9
							c3.5-6.3,12.5-15.3,12.9-21.7c-0.3-0.8-1.6-0.9-1.9-1.7c-0.6-1.5,0.3-2.2-2.1-3.3c-5.3-2.4-12.4,0.4-16.1,2.8
							c-5.6,3.6-11.4,6.4-19.6,7.7c-16.9,4-32.9,12.2-46.9,20.7c-19.8,14.7-21,33.2-24.9,53.3C633,347.3,665.8,347.4,675.2,346.1"/>
						<path id="Fill-18" class="st10" d="M1049.3,480.4c-1.9,6.7-1.7,11.5-12.8,14c-4.9,1.1-8.1,1.2-11.7-1.3
							c-7.5-6.8-14.8-17-14.8-26.7c0.3-13,12.6-14.3,23.7-15.9C1056,446.7,1048.4,473.4,1049.3,480.4"/>
						<path id="Fill-20" class="st11" d="M647.9,222.4c12.8-8,21.2-19.6,28.4-29.8c1.4-2,9.5-9.3,2.8-10c-6.8,1.3-10.4,2.2-15.1-3.6
							c-5.3-4.6-18.8-0.2-25.9,0.3c-11.8,3.7-20.8,10.9-27.8,20.3c-11.7,8.9-7.2,16,7.4,21.1C629.4,222.5,633.7,227.8,647.9,222.4"
							/>
						<path id="Fill-22" class="st12" d="M831.3,104.8c9,5.4,19.3,14.9,32.1,16.9c12.8,2,12.1-6.5,9.9-12.1
							c-2.1-5.6-4.3-11.5-11.3-15.5C852.2,87.8,819,81.3,831.3,104.8"/>
						<path id="Fill-24" class="st10" d="M852.5,74.6c-3.3,5.5-13,6.2-20.2,9c-34.1,13.5-72,20.7-108.8,19.5
							c-5.7-1.1-3.9-4.7-5.6-7.3c-2.3-3.7-8.5-5.9-10.3-10c-3.1-10.4,24.4-9.1,31.4-11.5c29.6-2.1,59.4-6.6,89-8.8
							c4.9,0,14.4-1.3,18.5,0.4C852,68.1,847.5,73.1,852.5,74.6"/>
						<g id="Group-28" transform="translate(905.000347, 0.000000)">
							<g id="Clip-27">
							</g>
							<defs>
								<filter id="Adobe_OpacityMaskFilter_3_" filterUnits="userSpaceOnUse">
									<feColorMatrix  type="matrix" values="1 0 0 0 0  0 1 0 0 0  0 0 1 0 0  0 0 0 1 0"/>
								</filter>
							</defs>
							<mask maskUnits="userSpaceOnUse" id="mask-10_1_">
								<g class="st13">
									<polygon id="path-9_1_" class="st2" points="0.3,0.2 164.7,0.2 164.7,166.7 0.3,166.7 									"/>
								</g>
							</mask>
							<path id="Fill-26" class="st14" d="M157.4,51.1c-11.8,19.2-21.7,38-44.9,55c-16.4,9.6-27.7,21.7-35.5,37.8
								c-3.9,8.1-0.5,19.5-22,22.4c-14.6,2.2-26.3-4.6-36.6-11.8C-1.9,137.7-5.4,100.7,6.6,78.3c4.7-7.2,12.6-14,18-21.1
								C30.1,50,32.9,42,39.5,35c12.2-12.7,25-26.1,41.9-37.6c14.9-9.5,37.6-14.3,56.1-16c14.2,1.7,20.5,14,24.4,23
								c0.9,4.5-0.9,9,0.4,13.4c2.4,4.6,2.5,9.2,2.3,14.2c0.1,3.3-1.1,6.2-2.5,9.4C160.3,45.8,160.5,50.3,157.4,51.1"/>
						</g>
						<path id="Fill-29" class="st10" d="M790.8,522.9c27.6-13.1,51.9-23,22.7-54c-8-9.1-16.7-17-31.7-22.1
							c-22.5-9.2-41.2-14-44,16.5c-6.3,20.8,9,37.7,26.6,49.3C770.7,515.3,785,526.5,790.8,522.9"/>
						<path id="Fill-31" class="st15" d="M877.8,238.2c-37.5,9.1-80.5,20.2-83.3,61.7c-2,11.1-7.3,21.6-10,32.6
							c-2.9,11.7-7.9,26.3-4.2,38.2c10.2,21.9,32.9,41.9,52.2,58.5c29.8,19.2,96.4-0.4,124.6-18.2c5.2-4.2,8.6-9,13-13.5
							c5.2-5.4,11.9-9.9,14.5-16.1c18.9-40.6-10.6-74.8-42.5-99.7C917.5,262.3,912,257.8,877.8,238.2"/>
						<g id="Group-35" transform="translate(747.577871, 0.000000)">
							<g id="Clip-34">
							</g>
							<defs>
								<filter id="Adobe_OpacityMaskFilter_4_" filterUnits="userSpaceOnUse">
									<feColorMatrix  type="matrix" values="1 0 0 0 0  0 1 0 0 0  0 0 1 0 0  0 0 0 1 0"/>
								</filter>
							</defs>
							<mask maskUnits="userSpaceOnUse" id="mask-12_1_">
								<g class="st16">
									<polygon id="path-11_1_" class="st2" points="0.3,0.2 177.9,0.2 177.9,45 0.3,45 									"/>
								</g>
							</mask>
							<path id="Fill-33" class="st17" d="M177.9-30.1C156,13.7,106.6,48,54.7,44.7C19,41.3,9.7,9.2,2.2-15.3
								c-5-16.2,1-28.1,3.7-44.2C8.1-72.8,13-80.3,24.1-89.9c9.5-11,18.1-10.4,30.2-3.2c7.6,7.6-3.1,26.3-4.9,33.9
								c-3.2,13.6-4.3,26.6-4.3,40.5c0,12.2-1.7,21.2,12.3,28.5c11.7,6.2,20.2,6.3,30.6-1.6C94.9,2.9,98.8-4,105.4-9.4
								c4.2-3.4,7.4-5.3,11.2-9.3C143.1-44.3,141.3-68.6,177.9-30.1"/>
						</g>
						<path id="Fill-36" class="st18" d="M917.9,171.4c-9.5-0.1-14.8,0.8-22.6,4c-12.2,3.5-29.9-1.5-39.5,7.5
							c-22.9,19.3-13,79.2,18.4,85.8c12.6,1.4,26.4-3.9,34.3-13c14.5-10.5,18.4-5.8,22.1-25.9c6.3-14.3,2-29.8,0-44.2
							c-0.7-4-2.9-7.9-7-9.5C921.2,173.2,919.3,170.1,917.9,171.4"/>
						<path id="Fill-38" class="st19" d="M748.5,151.1c8.7,1.8,20.6,5.1,15.2,15.1c-1.1,7.5,2.6,20.2-6.2,26.5
							c-11.3,7.5-25.8-2.6-26.6-14.1c-1.2-4.8-5.3-10.2-2.6-14.9C731.3,158.2,738.1,154.2,748.5,151.1"/>
						<path id="Fill-43" class="st10" d="M1374.6,403.8c3.6,3.2,15.7,3.4,21,2.7c17.5-2.5,18.6-21.1,18.6-34.3
							c-1.1-12.6,12-27.1,4.1-39.1c-10.1-8-23.4,0.3-29.1,5.9c-8.1,8-9.4,16.7-12.4,25.5c-2.1,10-5,19.9-4,30.1
							C1372.7,397.6,1371.7,401.1,1374.6,403.8"/>
						<path id="Fill-45" class="st20" d="M1266.1,398.3c2.8,17.7-25.8,22.5-35.7,12.4c-8.6-7.9-33.6-23.5-23.6-35.7
							c4.8-5.3-4.6-15.2,11.2-16.4c4.2-0.3,10-1.7,14.2-1.3C1242.7,356.8,1282.3,390.2,1266.1,398.3"/>
						<path id="Fill-47" class="st20" d="M325.7,174.6c2.8,17.7-25.8,22.5-35.7,12.4c-8.6-7.9-33.6-23.5-23.6-35.7
							c4.8-5.3-4.6-15.2,11.2-16.4c4.2-0.3,10-1.7,14.2-1.3C302.2,133.2,341.8,166.6,325.7,174.6"/>
						<path id="Fill-49" class="st12" d="M1170.7,401.5c0.6,6.9,4.9,13.8,5.7,20.8c2.5,11.1,6.7,23.7-7.5,29.2
							c-9.7,3.3-13.7-4.8-22.3-6.8c-9.1-2.1-19.2,3.1-28.6,1.1c-5.6-1.1-16.9-6.9-18.6-10c-4.4-7.9-4.1-17-4-25.2
							c0.1-17.4-2.1-34.6,7.6-50.2c5.2-16.6,9.9-20.7,28.3-14.9c16.8,5.4,19.3,18.1,27.7,27.4C1168,379.9,1168.6,391.3,1170.7,401.5
							"/>
						<path id="Fill-51" class="st18" d="M1286.8,372.3c0.6,25.2-2.2,51-22,69.4c-5.5,3.9-11,0.4-17.8-0.6c-9.6-1.5-22-2.9-27.2-8.6
							c-5.8-6.4-1.3-17-1.7-24.2c-0.4-7-7.7-15.2-0.5-21.7c6.2-5.5,22.4-9.6,32.2-11.8C1259.3,372.7,1269.8,367.3,1286.8,372.3"/>
						<path id="Fill-53" class="st10" d="M1054.5,390.2c0,5.9,0,11.5-1.5,17.3c-0.7,2.7,1.2,7.4-2.2,9c-9.8,3.2-21.9,2.2-32.1,2.3
							c-7.9,0-15.4,0.7-12.9-5.5c4.2-7.7,15-14.6,22.3-20.8c6.5-6.8,16.2-7.5,23.9-3.6C1051.6,388.9,1051.1,389,1054.5,390.2"/>
						<g id="Group-57" transform="translate(330.590707, 0.000000)">
							<g id="Clip-56">
							</g>
							<defs>
								<filter id="Adobe_OpacityMaskFilter_5_" filterUnits="userSpaceOnUse">
									<feColorMatrix  type="matrix" values="1 0 0 0 0  0 1 0 0 0  0 0 1 0 0  0 0 0 1 0"/>
								</filter>
							</defs>
							<mask maskUnits="userSpaceOnUse" id="mask-14_1_">
								<g class="st21">
									<polygon id="path-13_1_" class="st2" points="0.1,0.2 151.8,0.2 151.8,39.7 0.1,39.7 									"/>
								</g>
							</mask>
							<path id="Fill-55" class="st22" d="M17.9-68.8C30.2-70,38.5-68.3,44.5-58c5.4,6.4,5,14.9,6.6,22.7
								c0.5,9.5,11.3,34.8,25.4,23.5C90.3-24,61.7-37.1,79.1-53.1c4.6-4.6,8.2-9.8,13.2-14.2c7.6-8.7,36.5-8.5,42.6,0.8
								c0.3,7.5-0.3,9.8,3.9,16.9c3.4,7.7,12.8,15.7,13,23.7c-1.9,12.4-7.2,24.2-12.1,35.9c-10.3,11.3-20.7,25-38.1,28.7
								C61.5,43.6,7.1,31.2,4-14.9C-0.3-35.7-7.4-52.1,17.9-68.8"/>
						</g>
						<path id="Fill-58" class="st23" d="M1094,291c-6.8,14.7-14.8,29.1-23.6,43c-5.5,10-14.5,18.8-23,26.9
							c-18.8,6.4-41.2,7.8-59,18c-13,5.6-22.1-2.8-33.9-6.9c-10.6-2.2-16.6-10-23.6-17.1c-19.6-20.8,21.6-54.6,32.1-73.6
							c13.4-17.3,42.1-23,63.4-26.6c7.9,0.4,11.8,6.6,20.7,4c15.9-9.3,33,6.3,41.1,18.1C1093.2,282.7,1096.5,290.4,1094,291"/>
						<path id="Fill-60" class="st7" d="M1131.7,304.7c-9.2,3-17.2,6.4-22.6-3.4c-7.4-8.2-10-20.9-7.1-30c1.1-3.6,1.4-11.1,10.4-7.9
							c7.9,2.8,9.6,10.3,13.8,14.8C1128.2,280.4,1141.8,299.2,1131.7,304.7"/>
						<path id="Fill-62" class="st20" d="M778.9,177.5c2.3-22.9,21.6-27.5,43.3-24.9c24,10.1,29.2,19.2,37.7,42.2
							c8.7,17.2,8.8,28.5-12.5,37.5c-12.5,9.8-17,3.9-30.5,0.2c-9,0-22.2-0.7-27.3-8.3C780.4,207.7,779,200.1,778.9,177.5"/>
						<path id="Fill-64" class="st24" d="M1071.4,201c4.8,11.8,5.9,25.1,0.2,37.1c-1.7,3.3-1,7.3-5.8,9.5c-5,2.3-11.5,0.4-13.7-3.1
							c-8.6,1-10.3,7.2-20.1,2.7c-5.3-4.4-6.6-7.1-13.5-3.2c-12.2,7.5-6.8-6-17.3-5.3c-4.6,1.6-7.5,5-12.4,5.8
							c-15.9,4.3-4.6-21.2-0.9-26.2c8.8-10.6,21.8-19.3,34.5-25.3c7.5-5.1,11.3-4.1,18.7,0.9c3.4,1.2,7.3,0.9,10.9,1.6
							C1056.9,196.4,1060.7,199.5,1071.4,201"/>
						<path id="Fill-66" class="st15" d="M219.1,259.3c-5,19.1,2.6,39.2-5.7,57.4c-3.2,6.9-7,14-9,21.1c-2.5,20-25.6,25.4-40,35.8
							c-4.6,3.7-9.5,6.4-16.8,8.3c-12.6,2.8-15.5-12-28.3-7.3c-12.1,3.2-17.1-3.9-21.8-9.6c-20.9-23.7-11.6-50.3-10.3-77
							c-2.1-24.5,11-34.5,32.9-42.6c19.5-11,43.6-25.2,67-16.7c9.1,3,15.4,7.1,21.5,12.1C215,245.9,214.4,253.2,219.1,259.3"/>
						<path id="Fill-71" class="st7" d="M1320.2,326.4c-1.2,17.1-27.6,19.8-32,4.6c-1-4.4,3.2-13.3,10.2-15.4
							C1306,313.7,1319.8,318.3,1320.2,326.4"/>
						<path id="Fill-73" class="st7" d="M1373,307c-4.4,17.6-28.8,24.9-37.8,5.8c-3.8-7.8,4.3-16.1,12.4-18.8
							C1356.6,291.8,1369.1,302.5,1373,307"/>
						<path id="Fill-75" class="st7" d="M1393.7,272.8c-2.8,15.4-23.8,11.7-30.1,1.5c-27.3,16-51.3-25.6-17.5-24.7
							c9.6,0.5,8.1,6.5,15.1,8.4c7.7,0.5,9.1-7.9,18.2-3.3C1390.7,260.4,1393.7,268.8,1393.7,272.8"/>
						<path id="Fill-77" class="st7" d="M1420.1,248.9c2.4,11.1-11.5,18.9-20.8,11.5C1388.8,253.1,1409.3,233.8,1420.1,248.9"/>
						<path id="Fill-79" class="st7" d="M1390,231.8c-9.1,12.1-29.4,11.5-40.5,1.7c-5.5-3.3-5.6-5.2-7-9.7
							c-1.1-3.5-3.8-8.4,0.2-11.5c7.8-5.1,24.4,0.2,32.2,3.4C1381.9,220.2,1383.6,226.4,1390,231.8"/>
						<path id="Fill-81" class="st7" d="M1320.2,218.1c3,3.3,8.9,6.7,9.5,11.7c0.7,3.5-0.8,12.5-9.5,12.1
							c-12-0.6-14.5-9.9-13.3-15.6c0.6-2.8,3.8-6.3,3.6-9.1c-0.2-2.7-4.3-3.8-7.2-5.8c-15.6-13-8.2-30.4,13.4-25.6
							c6.4,1.4,6.6,1.6,8.5,5.1C1331,201,1326.2,208,1320.2,218.1"/>
						<path id="Fill-83" class="st7" d="M1308.9,260.3c-0.1,10.1-11.7,14.8-21.5,7.5c-4-3-3-7.7-3-11.3
							C1283.2,232.8,1305.6,244.4,1308.9,260.3"/>
						<path id="Fill-85" class="st7" d="M1316.4,293.3c-1.4,5.2-11.6,7.9-18.9,9.4c-10.5,2.1-21.1-10.5-12.9-17.1
							c3.1-2.2,11.8-6.3,16.9-5.8C1308.6,280.5,1322.6,289.9,1316.4,293.3"/>
						<path id="Fill-87" class="st7" d="M1275,315c1.1,3.8-9.3,8.3-15.1,8.1c-8.9-0.3-15.2-6.4-11.6-11.5c1.9-2.8,6.6-4.8,9.7-7.1
							c3.3-2.5,5.7-3.9,10.4-2.5C1278.1,304.8,1274.7,309.8,1275,315"/>
						<path id="Fill-89" class="st7" d="M1269.3,270.5c2.7,23.2-22.8,23.4-32.6,6.9c-4.5-7.5,1.2-12.8,8.1-16.2
							C1256.2,245.6,1267.8,261.2,1269.3,270.5"/>
						<path id="Fill-91" class="st7" d="M1233.5,296.7c0,5.4,2.5,13.2-5.6,17.1c-6.5,3.2-17.8,1.9-20.6-3.5
							c-1.5-2.8,1.8-5.7,3.5-8.2C1215.3,292.2,1231,277.4,1233.5,296.7"/>
						<path id="Fill-93" class="st7" d="M1184.5,296.7c-0.9,17-31.7,4.5-30.3-8C1155.9,269.1,1190.7,277.8,1184.5,296.7"/>
						<path id="Fill-95" class="st7" d="M1209,270.5c3.7,19.4-28.8,9.3-25-3.4C1189,249.4,1213.7,254.1,1209,270.5"/>
						<path id="Fill-97" class="st7" d="M1226,240.9c1.5,14.7-23.5,11.5-26.3,0.7c-0.9-3.6,6.7-14.6,13.5-14.3
							C1221.5,227.6,1224.2,240.7,1226,240.9"/>
						<path id="Fill-99" class="st7" d="M1259.9,215.8c17.1,3.6,22.6,20.7,1.5,26C1238.8,245.2,1247.9,220.3,1259.9,215.8"/>
						<path id="Fill-101" class="st7" d="M1158.1,246.6c6.2,4.3,15.4,12.6,13,18.8c-1.4,3.6-9.9,11.1-16.7,10.7
							c-8.2-1.2-14.2-12.8-19.5-18.1C1129.9,249.5,1145.7,244.3,1158.1,246.6"/>
						<path id="Fill-103" class="st7" d="M1128,220.4c2.3,2.8,6.3,6.9,5.8,10.2c-2.9,9.6-14.9,16.9-25.6,12.1
							c-15.2-7.4-9.1-25.5,6.1-26.7C1122.2,215.1,1125.6,216.4,1128,220.4"/>
						<path id="Fill-105" class="st7" d="M1161.9,234c10.8-0.3,13.3-12.8,13.3-17.4c1.5-18.7-26.3-11.6-19.8-23.2
							c5.3-5.7,9.1-7.8,2.3-14.5c-15.8-11.1-42.3,6.3-22.3,23.1c2.8,2.3,6,5,9.5,6.9c2.6,1.4,3.5,0.7,3.6,3
							C1139.6,220.7,1148.4,229.3,1161.9,234"/>
						<path id="Fill-107" class="st7" d="M1222.2,206.7c-2.3,23-29.3,6.7-30.3-6.8c-0.7-4.9,9.1-16.8,19.1-12.7
							C1216.5,189.8,1221.1,201.6,1222.2,206.7"/>
						<path id="Fill-109" class="st7" d="M1256.1,199.8c-4.7,13.8-23.1,11.2-24.6-3.6c-0.6-9.7,16-15.9,22.4-6.7
							C1255.8,191.4,1260.4,196.9,1256.1,199.8"/>
						<path id="Fill-111" class="st7" d="M1175.1,169.1c6.3-0.6,24.8-12.9,22.6,0.9c-0.5,11.7-8.1,14.9-18.9,16.5
							c-2.5,0.9-2.9,2.4-6.1,1.7c-9-4.4-4.5-14.3,2-18.6C1174.8,169.7,1174.9,170,1175.1,169.1"/>
						<path id="Fill-113" class="st7" d="M1178.9,153.1c-2.2,4.1-4.8,6.7-9.1,8.9c-2.1,1.4-4,3.9-8,3.7
							c-19.4-2.3-10.7-20.4,2.1-25.8C1174.5,137.3,1181.6,145.5,1178.9,153.1"/>
						<path id="Fill-115" class="st7" d="M1137.4,163.4c-0.5,6.5-13,8.8-17,3.7c-6.7-5.4-11.9-12.3-3.4-18.3
							c4.8-3.5,16.3-9.1,22-4.4c0.6,2.7,1.6,4.8,3.8,6.8c0.6,2.7-2,5.3-3.1,7.9C1137.9,163.4,1139.2,165,1137.4,163.4"/>
						<path id="Fill-117" class="st7" d="M1103.5,179.3c2.9,1,8.8,2.8,10.9,4.4c2.7,2,2.3,5.4,2.3,7.8c-0.1,4.7,0.4,9.6-6.7,12.9
							C1084,213.5,1079.4,180,1103.5,179.3"/>
						<path id="Fill-119" class="st7" d="M1244.8,160c-9.3-5.4-40.1-11.6-37.3,5.9C1213.3,185.5,1238.2,176.9,1244.8,160"/>
						<path id="Fill-121" class="st7" d="M1226,140.6c-1.1,7.3-18.7,9.8-26,6.9c-3.2-1.8-8-11.9-5.1-14.4c2.3-2.6,7.2-5.7,12.1-6.2
							C1214.6,126.5,1230.6,132.1,1226,140.6"/>
						<path id="Fill-123" class="st7" d="M1244.8,147.4c17,2.2,18.6,1.1,26.5-12.5c2.2-6.5-13.3-0.5-11.2-6.6
							c3.8-2.5,6.4-6.4,5.5-11.1c-1.6-11.3-32.4,2.9-28,12.2c1.3,2.6,5.8,3.4,5.2,6.3c-0.5,3-6.6,3.5-4.8,6.9
							C1238.6,143.8,1243.1,146.6,1244.8,147.4"/>
						<path id="Fill-125" class="st7" d="M1267.4,158.8c8,0.4,23.5-2.8,26,6.9c1.2,3.4,0.2,5.2-2.4,8c-3,3.3-3.5,7.3-6.6,10.6
							c-6.4,6.7-15.7,0.6-20.4-3.9C1255.4,173,1255.5,165.4,1267.4,158.8"/>
						<path id="Fill-127" class="st7" d="M1318.3,147.4c6-0.5,15.8-5.2,18.9,0c3.6,6,5.8,14.9,2.8,21.2c-2.6,4.1-3.4,10.8-10.2,8.9
							c-11.9-2.2-22.8-8.1-24.6-15.8c-0.5-1.9,1.3-5.6-0.4-7.2c-7.5-5-28.2-3.1-18.7-17.4c6.9-9.7,13.6-2.9,22.9-2.5
							C1318.1,134.3,1319.3,142.1,1318.3,147.4"/>
						<path id="Fill-129" class="st7" d="M1314.6,113.2c0,3.2-0.7,8.2-5.5,10.4c-5.4,1.5-14.1,3.6-19.1,0
							c-12.6-10.1,5.2-20.5,13.3-26.1C1310.4,99.1,1313.5,107.1,1314.6,113.2"/>
						<path id="Fill-131" class="st7" d="M1352.3,121.2c23.8,1.3,7.3,14-4.2,19.2c-4.1,0.2-5.2-3.7-7.1-5.4
							C1330,129.1,1338.9,127.6,1352.3,121.2"/>
						<path id="Fill-133" class="st7" d="M1378.6,145.1c-6.5,3.6-22.3,4.1-20.9,11.1c2,4.6,6.7,16,13.4,15.2c5.7-0.4,12.3-7,15-9.4
							C1391.4,157.4,1386.2,148.9,1378.6,145.1"/>
						<path id="Fill-135" class="st7" d="M1352.3,179.3c5.1,0,11-0.8,15.2,1.1c7.9,4.7,18.3,16.4,5.6,23
							c-13.2,5.7-30.3-2.9-30.2-16.1C1342.8,185,1344.3,177.7,1352.3,179.3"/>
						<path id="Fill-137" class="st7" d="M1403.1,166.8c-3.6,2.2-10.1,5.1-12.9,8c-3.6,7.6,2.8,13.7,13,12.5
							c7.7-1.6,18-1.5,11.7-11.7C1412.2,168.3,1405.8,166.5,1403.1,166.8"/>
						<path id="Fill-139" class="st7" d="M1401.3,197.6c8.1-1.4,19.1-2.7,24.5,4.3c6.8,6,11.2,9.9,7.6,16.9
							c-2.2,4.3-3.1,7.2-11.4,8.3C1409.2,229.3,1381.2,205.5,1401.3,197.6"/>
						<path id="Fill-141" class="st11" d="M493.7,482c-0.3,16.8,4.8,35.7-7.3,49.9c-11,7.3-15,19.8-29.4,23
							c-42-6.2-26.8,7.5-61.1,10.4c-24.9,3.6-58.5-8.1-71.6-25.8c-7.8-10.2-4.6-21.9-3.9-32.9c-1.7-14.1-1.9-28.2,2.1-42
							c5.3-7.6,9.5-15.3,15.9-22.6c14.7-13.6,32-29.5,53.9-33.2c23-4.6,54.4-1.7,71.3,13.5C482.1,439.3,491.7,454.8,493.7,482"/>
						<path id="Fill-145" class="st15" d="M535.7,315.6c-1.9,19.9-2.4,39.5-7.1,59c-2.1,12.7-7.3,25.2-8.4,38
							c-2.1,13.1-3.8,26.5-7,39.5c-3.1,12.6-7.6,24.5-7.6,37.4c0,6.1-2.4,12.5-4.3,18.5c-0.4,5.4-2.8,9.7-5.3,14.2
							c0.8,6-8.7,7.1-12.7,3.2c-7.2-5.6-8.1-11.8-8-18.6c0.2-17.6-3.9-35.1-3.8-52.7c-1.5-12.1,2.4-23,7.6-33.9
							c10.2-28.5,13.3-57.5,20.6-86.1c1.9-12.2,7.9-15.3,18.9-21C523.1,308.7,533.8,305.8,535.7,315.6"/>
						<g id="Group-149" transform="translate(0.000000, 48.771854)">
							<path id="Fill-147" class="st24" d="M112.2,276.6c-57-18.8-100.4-67.2-109.3-123.2c-4-23.8-3.1-48.9,17-65.9
								c14.6-31.7-4-50.4,35.9-72.8C69.7,6.5,85.4-1.8,103.2,0.9C143.1,14.7,156.1,69.1,165,104c4.5,12.1,7.3,24,5.1,36.9
								c-1.3,13.3,3.7,26.6,4.4,39.9c0.5,27.4-13.8,56-33.1,75.5C132.2,263.3,124.3,275,112.2,276.6"/>
						</g>
						<g id="Group-152" transform="translate(1274.283731, 0.000000)">
							<g id="Clip-151">
							</g>
							<defs>
								<filter id="Adobe_OpacityMaskFilter_6_" filterUnits="userSpaceOnUse">
									<feColorMatrix  type="matrix" values="1 0 0 0 0  0 1 0 0 0  0 0 1 0 0  0 0 0 1 0"/>
								</filter>
							</defs>
							<mask maskUnits="userSpaceOnUse" id="mask-16_1_">
								<g class="st25">
									<polygon id="path-15_1_" class="st2" points="0.1,0.2 164.7,0.2 164.7,141.4 0.1,141.4 									"/>
								</g>
							</mask>
							<path id="Fill-150" class="st26" d="M211.6,58.5c1,24.1,7.9,53.9-15.8,70.1c-5.5,4-12.4,6.1-19.3,9.1
								c-6.3,3.2-13.6,4.8-20.6,2.1c-23-8.8-37.2-28.3-57.7-41.6c-15.7-9.1-28.3-21.7-40.9-34.1c-9.8-9.9-12.6-22.9-14.9-34.2
								c0.5-9.7-5-17-9.9-24.9c-4.9-8.9-1.8-20.4,6.1-27.2c9.7-5.7,22.6-2.7,26.5-15.1c9.2-14.8,27.2-21.1,44.9-22.5
								c18.7-2.9,44.4,19.7,58.7,29.5C185-18.8,192.1-3,198.7,14.6c4.7,7.4,8.9,15.3,9,24.2C208.7,47.7,212.4,56.7,211.6,58.5"/>
						</g>
						<path id="Fill-153" class="st20" d="M86.7,603.2c12.8-10.7,22.7-15.2,24.2-33c11.3-34.7,4-70.2,22.3-103.2
							c5.9-11.7,11.7-22,15-34.2c1.7-6.5,6.4-11.2-1-16.8c-7.9-6-22.9-9.6-27.6-17c-2.8-4.3-0.5-12.6-9.1-14.3
							c-11.9-2.4-33.1,14.1-38.4,19.1c-11,10.3-11,25-15.8,36.5c-9.9,23.8-28.5,46.9-27.1,71.8c0.5,10.4,5.5,20.3,7.3,30.6
							c1.3,7.7,7.4,14.5,10,22.1c2.5,7.3,5.1,14,8.9,21.1C61.3,599.7,64.2,598.6,86.7,603.2"/>
						<path id="Fill-155" class="st12" d="M258.2,517.4c-8.2,27.6-23.7,70.3-60.9,63.6c-19.5-3.2-36.4-12.9-52.1-23.1
							c-13-11.5-7.6-28.7-11-43.5c-3-14.7,5.7-25.3,22.5-35.4c21.7-15.8,50.3-28.7,80.1-20.9c10.4,3,15.5,10.3,20.8,16.2
							C268.3,486.2,267.7,499.9,258.2,517.4"/>
						<path id="Fill-157" class="st19" d="M529.2,72.2C521.1,88.1,509.1,94.5,490,96c-17.2-0.9-24.4-22.4-25.9-30.4
							c-4.6-15.8,27.2-19.4,39.2-19.7C519.4,46.6,543,63.5,529.2,72.2"/>
						<path id="Fill-159" class="st10" d="M269.9,92.6c-19.7,25.7-102.1,86.8-125.5,33.5c-22.6-35.3,7-44,37.7-54.4
							C218.8,54.3,238.6,56.6,269.9,92.6"/>
						<path id="Fill-161" class="st11" d="M1351.3,415.5c19.4-2,40.2,2.8,49,13.7c4.4,5.4,6.1,10.9,9.3,16.6c2.8,4.9,8.3,8.9,10,14
							c1.7,4.9,4.4,8.8,2.3,13.9c-4.3,15.4,21.5,23.3,9,40c-2.6,4.1-8.7,6.1-10.2,10.2c-3.4,11.4-4.4,17.5-19.5,13.3
							c-8.7-0.8-12.8-5.3-21.2-6.7c-21.7-5.3-27.3-19.9-38.1-31c-9.5-9.8-24.5-18.6-28.1-30.1c-5.1-10.9,1.2-20.9,2.1-31.8
							c3.3-9.5,10.2-18.3,21.8-19.4C1341.8,417.3,1346.9,414.6,1351.3,415.5"/>
						<path id="Fill-166" class="st27" d="M1197.5,532.9c10.5,11.4,13.7,24.2,24.1,35.8c14.5,18.7,0.2,33.3-21.2,28.5
							c-9.2,1.6-3.6,12.1-26.2,5.3c-26.5-9.9-66.8-35.4-72.4-60.9c1.4-15.8,16.9-25.3,31.1-33.2c6.6-3.6,12.3-3.7,20.4-5.4
							C1157.3,502.2,1190.5,522.9,1197.5,532.9"/>
						<path id="Fill-168" class="st27" d="M218.4,184.2c5.6-6.5,12.4-9.2,18.1-15.7c9.1-9.3,18.4-2.2,17.1,9.7
							c2.2,5.3,6.8,1.6,4.7,14.1c-4.2,16.1-14.2,38.3-28.6,44c-8.8,0.3-15.1-7.6-20.4-14.9c-2.5-3.4-2.9-6.5-4.3-10.9
							C204.2,208.4,213.4,188.7,218.4,184.2"/>
						<g id="Group-172" transform="translate(1.995842, 489.945887)">
							<g id="Clip-171">
							</g>
							<defs>
								<filter id="Adobe_OpacityMaskFilter_7_" filterUnits="userSpaceOnUse">
									<feColorMatrix  type="matrix" values="1 0 0 0 0  0 1 0 0 0  0 0 1 0 0  0 0 0 1 0"/>
								</filter>
							</defs>
							<mask maskUnits="userSpaceOnUse" id="mask-18_1_">
								<g class="st28">
									<polygon id="path-17_1_" class="st2" points="0.3,0.1 63.2,0.1 63.2,101.7 0.3,101.7 									"/>
								</g>
							</mask>
							<path id="Fill-170" class="st29" d="M33.1,30c10.5,11.4,13.7,24.2,24.1,35.8C71.7,84.4,57.3,99.1,36,94.2
								c-9.2,1.6-3.6,12.1-26.2,5.3C-16.7,89.7-57,64.1-62.6,38.7c1.4-15.8,16.9-25.3,31.1-33.2c6.6-3.6,12.3-3.7,20.4-5.4
								C-7.1-0.7,26.1,20,33.1,30"/>
						</g>
						<g id="Group-178" transform="translate(1003.494623, 0.000000)">
							<g id="Clip-177">
							</g>
							<defs>
								<filter id="Adobe_OpacityMaskFilter_8_" filterUnits="userSpaceOnUse">
									<feColorMatrix  type="matrix" values="1 0 0 0 0  0 1 0 0 0  0 0 1 0 0  0 0 0 1 0"/>
								</filter>
							</defs>
							<mask maskUnits="userSpaceOnUse" id="mask-20_1_">
								<g class="st30">
									<polygon id="path-19_1_" class="st2" points="0.1,0.2 143.5,0.2 143.5,49.7 0.1,49.7 									"/>
								</g>
							</mask>
							<path id="Fill-176" class="st31" d="M28.1-103.3c23.9,2.4,42.9,23.2,63.4,33.7c14,8.6,18.8,19.6,25,32.5
								c9.8,15.9,30.1,32,26.6,50.8c-1.9,12.7-11.8,20.3-24.8,23.7c-8.7,3.7-14.2,8.5-24.6,10.9c-23.2,4.4-56.7-3.3-71.1-20.3
								C-6.5-13.1-1.1-14.4,7.4-59.4C10.1-78.2,9.4-88.1,28.1-103.3"/>
						</g>
						<g id="Group-181" transform="translate(1403.083938, 259.564688)">
							<g id="Clip-180">
							</g>
							<defs>
								<filter id="Adobe_OpacityMaskFilter_9_" filterUnits="userSpaceOnUse">
									<feColorMatrix  type="matrix" values="1 0 0 0 0  0 1 0 0 0  0 0 1 0 0  0 0 0 1 0"/>
								</filter>
							</defs>
							<mask maskUnits="userSpaceOnUse" id="mask-22_1_">
								<g class="st32">
									<polygon id="path-21_1_" class="st2" points="0,0.1 35.9,0.1 35.9,98.6 0,98.6 									"/>
								</g>
							</mask>
							<path id="Fill-179" class="st33" d="M53.8,0.2c28.4-2.7,54.1,6.5,80.4,14.9c14.4,6.7,119.8,7.7,69.5,35.3
								c8.5,8.4-2.1,19.7-9.5,25.6c-3.7,3.3-4.1,6.1-6,9.7c-5.1,9.3-19,10.6-29.8,11.6c-13.7,0.4-26.3,2.2-39.9,0.9
								c-31.9-5.6-60.9-20-88.8-33.5c-15.2-7.3-23.5-19-27.7-33.7c-5.8-13.1,2.9-13.2,13.8-15c7.4-1.9,4-4.1,6.3-7.7
								C26.1,1.9,42.8,1.3,53.8,0.2"/>
						</g>
						<g id="Group-184" transform="translate(1.995842, 273.595212)">
							<g id="Clip-183">
							</g>
							<defs>
								<filter id="Adobe_OpacityMaskFilter_10_" filterUnits="userSpaceOnUse">
									<feColorMatrix  type="matrix" values="1 0 0 0 0  0 1 0 0 0  0 0 1 0 0  0 0 0 1 0"/>
								</filter>
							</defs>
							<mask maskUnits="userSpaceOnUse" id="mask-24_1_">
								<g class="st34">
									<polygon id="path-23_1_" class="st2" points="0.3,0.2 69.3,0.2 69.3,98.7 0.3,98.7 									"/>
								</g>
							</mask>
							<path id="Fill-182" class="st35" d="M-94.2,0.3c28.4-2.7,54.1,6.5,80.4,14.9C0.6,22,106,22.9,55.8,50.5
								c8.5,8.4-2.1,19.7-9.5,25.6c-3.7,3.3-4.1,6.1-6,9.7c-5.1,9.3-19,10.6-29.8,11.6c-13.7,0.4-26.3,2.2-39.9,0.9
								c-31.9-5.6-60.9-20-88.8-33.5c-15.2-7.3-23.5-19-27.7-33.7c-5.8-13.1,2.9-13.2,13.8-15c7.4-1.9,4-4.1,6.3-7.7
								C-121.9,2-105.2,1.4-94.2,0.3"/>
						</g>
						<path id="Fill-185" class="st7" d="M1306.9,433c3.9,4.3,9.6,9.8,17.7,11.7c5.9,1.4,14.5-1.2,20.4-2c8.8,0,21.5-4.4,18-14.2
							c-3.8-5.8-15.2-7.9-23.5-10.1C1324.9,413.5,1305.4,411.5,1306.9,433"/>
						<g id="Group-189" transform="translate(516.354841, 403.237251)">
							<g id="Clip-188">
							</g>
							<defs>
								<filter id="Adobe_OpacityMaskFilter_11_" filterUnits="userSpaceOnUse">
									<feColorMatrix  type="matrix" values="1 0 0 0 0  0 1 0 0 0  0 0 1 0 0  0 0 0 1 0"/>
								</filter>
							</defs>
							<mask maskUnits="userSpaceOnUse" id="mask-26_1_">
								<g class="st36">
									<polygon id="path-25_1_" class="st2" points="0.1,0 205.9,0 205.9,203.1 0.1,203.1 									"/>
								</g>
							</mask>
							<path id="Fill-187" class="st37" d="M168,260.4c7.9-6.2,20.5-14.1,25-23.7c13.9-32.2,14.6-68.2,11.2-102.6
								c0.3-29.7-6.5-58.3-22.7-83.4c-10.8-15.7-24.7-39-42.4-46.7C104.6-12,78.7,19.9,65,47.6c-13,25.2-25.9,50.6-39,75.8
								c-9.4,23.3-24.8,45.4-25.9,71C3.5,279.6,102.1,285.5,168,260.4"/>
						</g>
						<path id="Fill-190" class="st10" d="M338.8,238.2c24.1-2.1,16.5,19.4,14.1,27.2c-1.7,5.4-5.5,41.2-25.6,33.3
							C308.5,289.1,324.2,247.1,338.8,238.2"/>
						<path id="Fill-192" class="st12" d="M446,71.3c-2.5,16.8-6,33.7-17,49.2c-4.9,8-9.2,18.2-19.3,21.4c-8.4,1-13-7.6-21.2-8
							c-9.8-0.5-15.2,4.2-24.7-0.7c-10.9-5.6-9-19.2-3.2-26.3c10.8-13.3,25-25.3,37.6-37.6C412.4,52.1,426.3,54.3,446,71.3"/>
						<path id="Fill-194" class="st10" d="M391.5,265.6c15.8,8.7,7.4,51.2-11.4,51c-14.2-2.3-11.2-13.8-11.2-20.2
							C368.9,287.5,365,271.4,391.5,265.6"/>
						<path id="Fill-196" class="st10" d="M312.4,322.6c12.1-8.1,24.9,7.2,24.2,13.6c-2.6,13.8-26.3,49.6-38.5,24.8
							C292.2,344.8,306.6,338.7,312.4,322.6"/>
						<path id="Fill-198" class="st10" d="M286,258.8c-4.4,14.8,0.4,30.5-15.1,40.7c-7.3,4.5-18.6,5.2-25.6,0.1
							C229.5,281,263.3,243.4,286,258.8"/>
						<path id="Fill-200" class="st10" d="M255.8,331.7c11.5,8.7-3.9,40.5-20.4,38.9c-8.3-1.5-7-17.2-6.1-21.7
							C230.6,342.4,236.1,334.8,255.8,331.7"/>
						<path id="Fill-202" class="st10" d="M252.1,379.6c9.3-7.5,16.2-9.7,25.6,0c6.7,6,2,14.9-2.7,21.1
							C252.5,428.5,239.7,403.3,252.1,379.6"/>
						<path id="Fill-204" class="st10" d="M372.7,334c-12.2-2.4-16.5,2.3-21.9,8.6c-3.9,4.6-7.6,11.5-4,16.6
							c7.3,10.4,17.5-0.8,22.1-5.3C374.7,348.4,382.6,340,372.7,334"/>
						<path id="Fill-206" class="st10" d="M399.1,334c0.3-7,10.8-18.3,24.6-13.9c9.7,3.1,11.5,12.7,8.5,18.4
							c-6.5,8.8-8.4,20.5-22.9,22.3C386.4,361.3,400.8,335.2,399.1,334"/>
						<path id="Fill-208" class="st10" d="M301.1,402.4c3.7-7.1,1.2-18.3,18.9-17.3c13.2,0.7,12.1,11.7,10.9,17.3
							c-1.4,6.6-12.8,24.5-26.4,15.7C295.1,412.1,303.3,392.9,301.1,402.4"/>
						<path id="Fill-210" class="st10" d="M365.2,395.5c10.3-3.7,24.5-8.4,29.9,1.5c5,9.4-1.2,24.1-13.8,30.2
							c-11.2,5.4-20.5,0.6-23.8-6.4C355.6,414.4,355.9,394.2,365.2,395.5"/>
						<path id="Fill-212" class="st10" d="M289.8,434.3c-15.5-4.5-18.6-0.1-23.7,8.7c-12,18.1,18.3,21.9,24.8,5.1
							c1.4-2.9,4.7-7.4,4.5-10.2C295.1,433.9,290.6,432.5,289.8,434.3"/>
						<path id="Fill-214" class="st10" d="M206.8,384.1c-16.4,4.2-18.3,17.7-15.2,27.5c11,22.5,50.6-13.3,19-26.9
							C209.3,385.3,208.1,385.9,206.8,384.1"/>
						<path id="Fill-216" class="st20" d="M252.2,157.5c-11.3-35.6-11-67.4,37.5-72c20.8-4,38.7-5.5,60.5-2.9
							c23.4,2.8,45.4,8,68.2,12c25,4.3,59.6,5.3,64.9,24.1c8.4,29.7,3.8,57.5-7.6,86.7c-11.1,23.8-40.9,48.9-71.2,52.2
							c-38.7-0.3-79.9-24.7-108.1-44.3C254,186.2,260.4,149.1,252.2,157.5"/>
						<g id="Group-220" transform="translate(485.768299, 0.000000)">
							<g id="Clip-219">
							</g>
							<defs>
								<filter id="Adobe_OpacityMaskFilter_12_" filterUnits="userSpaceOnUse">
									<feColorMatrix  type="matrix" values="1 0 0 0 0  0 1 0 0 0  0 0 1 0 0  0 0 0 1 0"/>
								</filter>
							</defs>
							<mask maskUnits="userSpaceOnUse" id="mask-28_1_">
								<g class="st38">
									<polygon id="path-27_1_" class="st2" points="0.2,0.2 244.5,0.2 244.5,110.2 0.2,110.2 									"/>
								</g>
							</mask>
							<path id="Fill-218" class="st39" d="M64.1-160.7C-8-124.6-12-70.3,17.5-4.3c11.2,17.8,23,35.5,35.2,53.1
								c41.7,44.1,85.1,93,137.7,33.7c7.7-9.7,11.9-20.7,15-31.2c14.5-38.9,57-76.1,31.3-118.9c-12.3-28.4-31.9-53.8-62.7-67.9
								C136.5-155.6,113.2-161.5,64.1-160.7"/>
						</g>
						<g id="Group-223" transform="translate(199.545616, 0.000000)">
							<g id="Clip-222">
							</g>
						</g>
						<g id="Group-226" transform="translate(1388.492194, 0.000000)">
							<g id="Clip-225">
							</g>
						</g>
						<path id="Fill-227" class="st18" d="M636.6,62.7c21.1-11.6,36.1,7.7,39.9,25c3.7,8.6,8.8,17.1,13.1,25.6
							c6.6,13.3,21.8,32.6,1.9,44.3c-11.5,7.7-25.7-3.6-36.3-8.6c-9.7-6.2-18.5-43.5-18.7-54.6C636.5,85,641,79.1,636.6,62.7"/>
						<g id="Group-231" transform="translate(182.989598, 0.000000)">
							<g id="Clip-230">
							</g>
							<defs>
								<filter id="Adobe_OpacityMaskFilter_13_" filterUnits="userSpaceOnUse">
									<feColorMatrix  type="matrix" values="1 0 0 0 0  0 1 0 0 0  0 0 1 0 0  0 0 0 1 0"/>
								</filter>
							</defs>
							<mask maskUnits="userSpaceOnUse" id="mask-34_1_">
								<g class="st40">
									<polygon id="path-33_1_" class="st2" points="0.2,0.2 106.7,0.2 106.7,58.9 0.2,58.9 									"/>
								</g>
							</mask>
							<path id="Fill-229" class="st41" d="M16.4-47c24-7,49.3,4.7,64.5,21c21.2,19.6,28.6,41.3,24.9,67.3
								c-1.9,7.9-19.8,15.7-32.4,17.2C36.8,61.7-5.9,16,1.7-17C3.6-22.2,6.3-43.6,16.4-47"/>
						</g>
						<path id="Fill-232" class="st10" d="M872.6,476.7c20.7,8.2,17.5,24.5,21.6,41.1c1.6,5.6,4.3,11.4,5,17.1
							c1.2,9.4-0.1,18.9-3.1,28c-1.2,3.5,2.2,14.1-4.3,15.7c-16.8-2.8-10.5-20.1-13.5-27.8c-3.4-9-2.1-18.8-1.9-28.1
							c0.2-8-3.8-15.2-3.8-23.4C872.7,493.8,868.3,480.7,872.6,476.7"/>
						<path id="Fill-240" class="st10" d="M955.2,428.9c8.5,3,11.5,7.1,13.3,15.1c2.7,11.3,3,22.9,5.6,34.3
							c0.6,11.6-0.1,23.2-0.1,34.8c0,4.4,3.3,15.7-6.4,17.2c-4.1-2.5-4.5-8-5.7-11.4c-5.2-13.2-6.5-27-9.8-40.5
							c0.1-8.3,0-16.6,0-24.8C952.1,446,949.5,437.5,955.2,428.9"/>
						<path id="Fill-248" class="st18" d="M569.8,15.9c2.6,9.9,11,18.4,15.1,27.4c1.4,5.1,14.2,2.9,12.9-2.1
							c-4.1-9-12.5-17.5-15.1-27.4C581.1,8.7,568.2,10.8,569.8,15.9"/>
						<g id="Group-252" transform="translate(618.497053, 0.000000)">
							<g id="Clip-251">
							</g>
							<defs>
								<filter id="Adobe_OpacityMaskFilter_14_" filterUnits="userSpaceOnUse">
									<feColorMatrix  type="matrix" values="1 0 0 0 0  0 1 0 0 0  0 0 1 0 0  0 0 0 1 0"/>
								</filter>
							</defs>
							<mask maskUnits="userSpaceOnUse" id="mask-36_1_">
								<g class="st42">
									<polygon id="path-35_1_" class="st2" points="0.1,0.2 32.6,0.2 32.6,39.1 0.1,39.1 									"/>
								</g>
							</mask>
							<path id="Fill-250" class="st43" d="M0.1-3.4C1.3,7.2,13,15.5,11.6,27.2c0.8,4,5.2,5.8,7.6,9.2c3.2,4.7,16.2,2.7,12.9-2.1
								c-10.1-9.1-6-7-8.6-18.4C20.6,9.3,14,3.4,13.4-3.4C13-8.6-0.4-8.6,0.1-3.4"/>
						</g>
						<path id="Fill-256" class="st11" d="M819.5,324.9c0.1-5.9,2.5-11.7,3.6-17.6c0.8-4.8,0.1-9.6,3.6-13.7
							c1.1-1.4-2.4-2.6-3.5-1.2c-3.8,4.2-3.5,9.1-4.1,14.2C819.2,309.8,810.8,331.4,819.5,324.9"/>
						<path id="Fill-258" class="st11" d="M857.2,327.1c-0.3-6.1-0.7-12.1,1.5-18c0.6-3.5,2.9-6.7,2.3-10.3c0.3-0.2,1.4-0.2,1.8-0.2
							c2.6-0.1,2.6-2.5,0-2.4c-2.6,0-6.3,0.5-5.7,3.5c-0.5,5.6-3.7,11.1-4,16.8c-0.2,3.5,0.2,7,0.2,10.5
							C853.2,328.7,857.2,328.7,857.2,327.1"/>
						<path id="Fill-260" class="st11" d="M894.6,302.1c-0.3,6.1,0.6,12.2-0.3,18.2c-0.8,4.2-3.5,9,0.9,12.3
							c1.7,1.2,4.5-0.5,2.8-1.7c-3.1-3.1,0.1-7.6,0.4-11.2c0.6-5.8-0.1-11.7,0.2-17.6C898.6,300.5,894.6,300.5,894.6,302.1"/>
						<path id="Fill-262" class="st11" d="M872,340.8c0.9,3.8-14.7,34.5-3.5,27.4C866.2,364.2,883.1,333.3,872,340.8"/>
						<path id="Fill-264" class="st11" d="M830.6,343.1v29.6c0,1.6,4,1.6,4,0v-29.6C834.6,341.5,830.6,341.5,830.6,343.1"/>
						<path id="Fill-266" class="st11" d="M849.4,381.9c0,4.9-0.8,9.7-0.2,14.6c0.6,4.3,4.7,8.4,3.9,12.8c-0.3,1.5,3.7,1.5,4,0
							c0.8-4.5-3.4-8.4-3.9-12.8c-0.6-4.8,0.1-9.7,0.2-14.6C853.4,380.3,849.4,380.3,849.4,381.9"/>
						<path id="Fill-268" class="st11" d="M804.2,356.8c0.2,7.2,2.9,14.2,3.7,21.4c0.3,6.5,1.9,12.1,8.2,15.9
							c1.7,1.2,4.6-0.6,2.8-1.7c-6-3.7-6.7-9.1-7.1-15.1c-0.9-6.9-3.4-13.6-3.6-20.5C808.1,355.2,804.1,355.2,804.2,356.8"/>
						<path id="Fill-270" class="st11" d="M902.3,361c-3.2,6.7-2.8,13.7-4.6,20.5c-1.5,3-7,27.8,1,20.9c-0.4-7.1,0.5-13.9,3-20.6
							c1.7-6.7,1.4-13.6,4.5-20.1C906.8,360.2,903,359.5,902.3,361"/>
						<path id="Fill-272" class="st11" d="M940.2,388.1c-5.4,6.7-13,14.4-11.6,23.4c0.3,1.5,4.3,1.5,4,0
							C929.1,401.2,951.9,384.4,940.2,388.1"/>
						<path id="Fill-274" class="st11" d="M921.2,297.2c-2.3-6.7-3.6-13.4-3.7-20.2c0-1.6-4-1.6-4,0
							C913.4,280,915.7,305.3,921.2,297.2"/>
						<path id="Fill-276" class="st11" d="M845.9,288.4c0.3-8.4-4-16.6-3.8-25.1c0-1.6-4-1.6-4,0c-0.2,8.4,4.1,16.6,3.8,25.1
							C841.8,290,845.8,290,845.9,288.4"/>
					</g>
				</g>
			</g>
		</g>
	</g>
</g>
</svg>
